# xmcd
#
# Track frame offsets:
#	150
#	15011
#	30099
#
# Disc length: 624 seconds
#
# Revision: 0
# Processed by: cddbd v1.5.2PL0 Copyright (c) Steve Scherf et al.
# Submitted via: audiograbber 1.83.01
#
DISCID=09026e03
DTITLE=Nylon Beat - Petollinen Päiväkirja [CDM)
DYEAR=2003
DGENRE=Pop
TTITLE0=Petollinen Päiväkirja
TTITLE1=Petollinen Päiväkirja (Go Go Mix)
TTITLE2=Viimeinen
EXTD=TR.
EXTT0=
EXTT1=
EXTT2=
PLAYORDER=
